<?xml version="1.0" encoding="utf-8"?>
<!-- Generator: Adobe Illustrator 21.0.2, SVG Export Plug-In . SVG Version: 6.00 Build 0)  -->
<svg version="1.1" id="Layer_1" xmlns="http://www.w3.org/2000/svg" xmlns:xlink="http://www.w3.org/1999/xlink" x="0px" y="0px"
	 viewBox="0 0 48 60" style="enable-background:new 0 0 48 60;" xml:space="preserve">
<style type="text/css">
	.st0{opacity:0;fill:#FFFFFF;}
	.st1{fill:#FFFFFF;}
</style>
<rect x="-199.4" y="-130.9" class="st0" width="320" height="320"/>
<path class="st1" d="M-39.4,110l-2.9-1.7c-1.8-1-43.6-25.9-67.4-63.6c-12.7-20-16.6-41.2-11.1-59.5c4.5-15,15-26.9,29.5-33.4
	c5.1-2.3,10.3-3.4,15.5-3.4c16.8,0,29.8,11.7,36.4,19.1C-32.8-40-19.8-51.7-3-51.7c5.2,0,10.5,1.2,15.5,3.4
	C27-41.8,37.5-29.9,42-14.8c5.5,18.3,1.6,39.5-11.1,59.5C7,82.4-34.8,107.3-36.5,108.3L-39.4,110z M-75.8-40.3
	c-3.6,0-7.3,0.8-10.8,2.4c-11.4,5.1-19.7,14.5-23.2,26.3c-4.5,15.1-1.1,32.9,9.8,50.1c18.9,29.9,50.9,51.8,60.7,58.1
	c9.7-6.3,41.8-28.3,60.7-58.1c10.9-17.2,14.4-35,9.8-50.1C27.5-23.4,19.3-32.7,7.8-37.9C4.2-39.5,0.6-40.3-3-40.3
	c-18.1,0-31.5,19.8-31.7,20l-4.8,7.1l-4.7-7.1C-44.3-20.4-57.9-40.3-75.8-40.3z"/>
</svg>
